<mxfile host="app.diagrams.net" modified="2024-07-19T04:19:18.281Z" agent="Mozilla/5.0 (Windows NT 10.0; Win64; x64) AppleWebKit/537.36 (KHTML, like Gecko) Chrome/126.0.0.0 Safari/537.36" etag="xeKzFgx5U_itc2H7PZUZ" version="24.7.1" type="google">
  <diagram name="Page-1" id="4fnVpRQgvmgoV9M6nuJJ">
    <mxGraphModel grid="1" page="1" gridSize="10" guides="1" tooltips="1" connect="1" arrows="1" fold="1" pageScale="1" pageWidth="1100" pageHeight="850" math="0" shadow="0">
      <root>
        <mxCell id="0" />
        <mxCell id="1" parent="0" />
        <mxCell id="OFJAX9r79N_jN1IsHAyF-1" value="Plant" style="swimlane;fontStyle=0;childLayout=stackLayout;horizontal=1;startSize=26;fillColor=none;horizontalStack=0;resizeParent=1;resizeParentMax=0;resizeLast=0;collapsible=1;marginBottom=0;whiteSpace=wrap;html=1;" vertex="1" parent="1">
          <mxGeometry x="560" y="80" width="140" height="52" as="geometry" />
        </mxCell>
        <mxCell id="OFJAX9r79N_jN1IsHAyF-2" value="Trees" style="swimlane;fontStyle=0;childLayout=stackLayout;horizontal=1;startSize=26;fillColor=none;horizontalStack=0;resizeParent=1;resizeParentMax=0;resizeLast=0;collapsible=1;marginBottom=0;whiteSpace=wrap;html=1;" vertex="1" parent="1">
          <mxGeometry x="150" y="190" width="140" height="52" as="geometry" />
        </mxCell>
        <mxCell id="OFJAX9r79N_jN1IsHAyF-3" value="Willow" style="swimlane;fontStyle=0;childLayout=stackLayout;horizontal=1;startSize=26;fillColor=none;horizontalStack=0;resizeParent=1;resizeParentMax=0;resizeLast=0;collapsible=1;marginBottom=0;whiteSpace=wrap;html=1;" vertex="1" parent="1">
          <mxGeometry x="10" y="300" width="140" height="52" as="geometry" />
        </mxCell>
        <mxCell id="OFJAX9r79N_jN1IsHAyF-4" value="Herbs" style="swimlane;fontStyle=0;childLayout=stackLayout;horizontal=1;startSize=26;fillColor=none;horizontalStack=0;resizeParent=1;resizeParentMax=0;resizeLast=0;collapsible=1;marginBottom=0;whiteSpace=wrap;html=1;" vertex="1" parent="1">
          <mxGeometry x="1010" y="180" width="140" height="52" as="geometry" />
        </mxCell>
        <mxCell id="OFJAX9r79N_jN1IsHAyF-5" value="Shrubs" style="swimlane;fontStyle=0;childLayout=stackLayout;horizontal=1;startSize=26;fillColor=none;horizontalStack=0;resizeParent=1;resizeParentMax=0;resizeLast=0;collapsible=1;marginBottom=0;whiteSpace=wrap;html=1;" vertex="1" parent="1">
          <mxGeometry x="560" y="190" width="140" height="52" as="geometry" />
        </mxCell>
        <mxCell id="OFJAX9r79N_jN1IsHAyF-6" value="Jasmine" style="swimlane;fontStyle=0;childLayout=stackLayout;horizontal=1;startSize=26;fillColor=none;horizontalStack=0;resizeParent=1;resizeParentMax=0;resizeLast=0;collapsible=1;marginBottom=0;whiteSpace=wrap;html=1;" vertex="1" parent="1">
          <mxGeometry x="470" y="298" width="140" height="52" as="geometry" />
        </mxCell>
        <mxCell id="OFJAX9r79N_jN1IsHAyF-12" value="Parsley" style="swimlane;fontStyle=0;childLayout=stackLayout;horizontal=1;startSize=26;fillColor=none;horizontalStack=0;resizeParent=1;resizeParentMax=0;resizeLast=0;collapsible=1;marginBottom=0;whiteSpace=wrap;html=1;" vertex="1" parent="1">
          <mxGeometry x="900" y="298" width="140" height="52" as="geometry" />
        </mxCell>
        <mxCell id="OFJAX9r79N_jN1IsHAyF-15" value="Rosemary" style="swimlane;fontStyle=0;childLayout=stackLayout;horizontal=1;startSize=30;fillColor=none;horizontalStack=0;resizeParent=1;resizeParentMax=0;resizeLast=0;collapsible=1;marginBottom=0;whiteSpace=wrap;html=1;" vertex="1" parent="1">
          <mxGeometry x="1110" y="298" width="140" height="52" as="geometry" />
        </mxCell>
        <mxCell id="OFJAX9r79N_jN1IsHAyF-16" value="Oak" style="swimlane;fontStyle=0;childLayout=stackLayout;horizontal=1;startSize=26;fillColor=none;horizontalStack=0;resizeParent=1;resizeParentMax=0;resizeLast=0;collapsible=1;marginBottom=0;whiteSpace=wrap;html=1;" vertex="1" parent="1">
          <mxGeometry x="260" y="300" width="140" height="52" as="geometry" />
        </mxCell>
        <mxCell id="OFJAX9r79N_jN1IsHAyF-18" value="Magnolia" style="swimlane;fontStyle=0;childLayout=stackLayout;horizontal=1;startSize=26;fillColor=none;horizontalStack=0;resizeParent=1;resizeParentMax=0;resizeLast=0;collapsible=1;marginBottom=0;whiteSpace=wrap;html=1;" vertex="1" parent="1">
          <mxGeometry x="670" y="298" width="140" height="52" as="geometry" />
        </mxCell>
        <mxCell id="OFJAX9r79N_jN1IsHAyF-22" value="" style="endArrow=block;endSize=16;endFill=0;html=1;rounded=0;entryX=0.25;entryY=1;entryDx=0;entryDy=0;exitX=0.5;exitY=0;exitDx=0;exitDy=0;" edge="1" parent="1" source="OFJAX9r79N_jN1IsHAyF-3" target="OFJAX9r79N_jN1IsHAyF-2">
          <mxGeometry width="160" relative="1" as="geometry">
            <mxPoint x="60" y="460" as="sourcePoint" />
            <mxPoint x="220" y="460" as="targetPoint" />
          </mxGeometry>
        </mxCell>
        <mxCell id="OFJAX9r79N_jN1IsHAyF-23" value="" style="endArrow=block;endSize=16;endFill=0;html=1;rounded=0;entryX=0.75;entryY=1;entryDx=0;entryDy=0;exitX=0.5;exitY=0;exitDx=0;exitDy=0;" edge="1" parent="1" source="OFJAX9r79N_jN1IsHAyF-16" target="OFJAX9r79N_jN1IsHAyF-2">
          <mxGeometry width="160" relative="1" as="geometry">
            <mxPoint x="200" y="470" as="sourcePoint" />
            <mxPoint x="340" y="412" as="targetPoint" />
          </mxGeometry>
        </mxCell>
        <mxCell id="OFJAX9r79N_jN1IsHAyF-24" value="" style="endArrow=block;endSize=16;endFill=0;html=1;rounded=0;entryX=0.25;entryY=1;entryDx=0;entryDy=0;exitX=0.5;exitY=0;exitDx=0;exitDy=0;" edge="1" parent="1" source="OFJAX9r79N_jN1IsHAyF-6" target="OFJAX9r79N_jN1IsHAyF-5">
          <mxGeometry width="160" relative="1" as="geometry">
            <mxPoint x="390" y="200" as="sourcePoint" />
            <mxPoint x="530" y="142" as="targetPoint" />
          </mxGeometry>
        </mxCell>
        <mxCell id="OFJAX9r79N_jN1IsHAyF-25" value="" style="endArrow=block;endSize=16;endFill=0;html=1;rounded=0;entryX=0.75;entryY=1;entryDx=0;entryDy=0;exitX=0.5;exitY=0;exitDx=0;exitDy=0;" edge="1" parent="1" source="OFJAX9r79N_jN1IsHAyF-18" target="OFJAX9r79N_jN1IsHAyF-5">
          <mxGeometry width="160" relative="1" as="geometry">
            <mxPoint x="730" y="240" as="sourcePoint" />
            <mxPoint x="870" y="182" as="targetPoint" />
          </mxGeometry>
        </mxCell>
        <mxCell id="OFJAX9r79N_jN1IsHAyF-26" value="" style="endArrow=block;endSize=16;endFill=0;html=1;rounded=0;entryX=0;entryY=1;entryDx=0;entryDy=0;exitX=0.5;exitY=0;exitDx=0;exitDy=0;" edge="1" parent="1" source="OFJAX9r79N_jN1IsHAyF-2" target="OFJAX9r79N_jN1IsHAyF-1">
          <mxGeometry width="160" relative="1" as="geometry">
            <mxPoint x="460" y="150" as="sourcePoint" />
            <mxPoint x="600" y="92" as="targetPoint" />
          </mxGeometry>
        </mxCell>
        <mxCell id="OFJAX9r79N_jN1IsHAyF-27" value="" style="endArrow=block;endSize=16;endFill=0;html=1;rounded=0;entryX=0.5;entryY=1;entryDx=0;entryDy=0;exitX=0.5;exitY=0;exitDx=0;exitDy=0;" edge="1" parent="1" source="OFJAX9r79N_jN1IsHAyF-5" target="OFJAX9r79N_jN1IsHAyF-1">
          <mxGeometry width="160" relative="1" as="geometry">
            <mxPoint x="630" y="160" as="sourcePoint" />
            <mxPoint x="770" y="102" as="targetPoint" />
          </mxGeometry>
        </mxCell>
        <mxCell id="OFJAX9r79N_jN1IsHAyF-29" value="" style="endArrow=block;endSize=16;endFill=0;html=1;rounded=0;entryX=1;entryY=1;entryDx=0;entryDy=0;exitX=0.5;exitY=0;exitDx=0;exitDy=0;" edge="1" parent="1" source="OFJAX9r79N_jN1IsHAyF-4" target="OFJAX9r79N_jN1IsHAyF-1">
          <mxGeometry width="160" relative="1" as="geometry">
            <mxPoint x="760" y="150" as="sourcePoint" />
            <mxPoint x="900" y="92" as="targetPoint" />
          </mxGeometry>
        </mxCell>
        <mxCell id="OFJAX9r79N_jN1IsHAyF-30" value="" style="endArrow=block;endSize=16;endFill=0;html=1;rounded=0;exitX=0.5;exitY=0;exitDx=0;exitDy=0;entryX=0.25;entryY=1;entryDx=0;entryDy=0;" edge="1" parent="1" source="OFJAX9r79N_jN1IsHAyF-12" target="OFJAX9r79N_jN1IsHAyF-4">
          <mxGeometry width="160" relative="1" as="geometry">
            <mxPoint x="940" y="250" as="sourcePoint" />
            <mxPoint x="1030" y="250" as="targetPoint" />
          </mxGeometry>
        </mxCell>
        <mxCell id="OFJAX9r79N_jN1IsHAyF-31" value="" style="endArrow=block;endSize=16;endFill=0;html=1;rounded=0;entryX=0.75;entryY=1;entryDx=0;entryDy=0;exitX=0.5;exitY=0;exitDx=0;exitDy=0;" edge="1" parent="1" source="OFJAX9r79N_jN1IsHAyF-15" target="OFJAX9r79N_jN1IsHAyF-4">
          <mxGeometry width="160" relative="1" as="geometry">
            <mxPoint x="1130" y="260" as="sourcePoint" />
            <mxPoint x="1270" y="202" as="targetPoint" />
          </mxGeometry>
        </mxCell>
      </root>
    </mxGraphModel>
  </diagram>
</mxfile>
